<svg width="9" height="15" viewBox="0 0 9 15" fill="none" xmlns="http://www.w3.org/2000/svg">
<path d="M8.19953 0.262456H5.50138C5.49524 0.262413 5.4891 0.262685 5.48298 0.263273C2.75887 0.271861 2.4031 2.17401 2.40167 3.83653C2.39789 3.85227 2.39597 3.8684 2.39594 3.88458V5.05168H0.531615C0.477387 5.05168 0.42538 5.07322 0.387035 5.11157C0.34869 5.14991 0.327148 5.20192 0.327148 5.25615V8.13442C0.327148 8.18865 0.34869 8.24066 0.387035 8.279C0.42538 8.31735 0.477387 8.33889 0.531615 8.33889H2.39594V14.6551C2.39594 14.7093 2.41748 14.7613 2.45583 14.7997C2.49417 14.838 2.54618 14.8595 2.60041 14.8595H5.32125C5.37547 14.8595 5.42748 14.838 5.46583 14.7997C5.50417 14.7613 5.52571 14.7093 5.52571 14.6551V8.3391H8.19932C8.25355 8.3391 8.30556 8.31755 8.3439 8.27921C8.38225 8.24086 8.40379 8.18886 8.40379 8.13463V5.25635C8.40379 5.20212 8.38225 5.15012 8.3439 5.11177C8.30556 5.07343 8.25355 5.05188 8.19932 5.05188H5.32125V3.50468H8.19932C8.25355 3.50468 8.30556 3.48314 8.3439 3.4448C8.38225 3.40645 8.40379 3.35445 8.40379 3.30022V0.466922C8.40381 0.440081 8.39855 0.413497 8.3883 0.388691C8.37804 0.363885 8.363 0.341344 8.34403 0.322355C8.32506 0.303366 8.30254 0.288301 8.27774 0.278023C8.25294 0.267745 8.22637 0.262456 8.19953 0.262456Z" fill="white" fill-opacity="0.2"/>
</svg>
