<svg width="13" height="13" viewBox="0 0 13 13" fill="none" xmlns="http://www.w3.org/2000/svg">
<path d="M10.1611 0.570557H2.37698C1.22889 0.570557 0.294678 1.50456 0.294678 2.65285V10.4727C0.294678 11.6208 1.22869 12.555 2.37698 12.555H10.1609C11.309 12.555 12.2432 11.621 12.2432 10.4727V2.65264C12.2432 1.50456 11.3092 0.570557 10.1611 0.570557ZM8.06959 6.54058C8.06959 7.53347 7.26194 8.34111 6.26904 8.34111C5.27614 8.34111 4.46849 7.53347 4.46849 6.54058C4.46849 6.04802 4.66764 5.60146 4.98907 5.27615H7.54881C7.88266 5.61225 8.06989 6.06685 8.06959 6.54058ZM8.5916 2.23655H10.4155V4.1154H8.5916V2.23655ZM10.1611 11.328H2.37698C2.15018 11.3277 1.93273 11.2375 1.77236 11.0771C1.61198 10.9167 1.52176 10.6993 1.52149 10.4725V5.27615H3.52201C3.33778 5.67225 3.24212 6.10374 3.24168 6.54058C3.24168 8.21005 4.59976 9.56791 6.26904 9.56791C7.93832 9.56791 9.2964 8.20984 9.2964 6.54058C9.2964 6.08891 9.19416 5.66157 9.01607 5.27615H11.0164V10.4725C11.0161 10.6992 10.9259 10.9167 10.7656 11.077C10.6053 11.2374 10.3879 11.3276 10.1611 11.328Z" fill="white" fill-opacity="0.2"/>
</svg>
