<svg width="13" height="12" viewBox="0 0 13 12" fill="none" xmlns="http://www.w3.org/2000/svg">
<path d="M0.147217 3.92578H3.0257V11.4367H0.147217V3.92578Z" fill="white" fill-opacity="0.2"/>
<path d="M1.55839 2.72716C2.36297 2.72716 3.01521 2.13213 3.01521 1.39813C3.01521 0.66412 2.36297 0.0690918 1.55839 0.0690918C0.753805 0.0690918 0.101562 0.66412 0.101562 1.39813C0.101562 2.13213 0.753805 2.72716 1.55839 2.72716Z" fill="white" fill-opacity="0.2"/>
<path d="M10.2612 3.75586C9.67176 3.75586 9.17225 3.8632 8.76168 4.07769C8.35152 4.29238 7.94626 4.64938 7.5453 5.1491V3.92557H4.86475V11.4364H7.74323V7.82945C7.74323 7.14571 7.8518 6.67217 8.06874 6.408C8.28568 6.14403 8.56825 6.01195 8.91728 6.01195C9.23318 6.01195 9.47833 6.10988 9.65295 6.30556C9.82756 6.50123 9.91446 6.83472 9.91446 7.30642V11.4364H12.8073V6.66276C12.8073 5.67253 12.5819 4.94054 12.1315 4.46659C11.6817 3.99263 11.0578 3.75586 10.2612 3.75586Z" fill="white" fill-opacity="0.2"/>
</svg>
