<svg width="25" height="29" viewBox="0 0 25 29" fill="none" xmlns="http://www.w3.org/2000/svg">
<g style="mix-blend-mode:difference">
<path d="M5.25677 7.47266H11.1356C11.843 7.47266 12.294 8.228 11.9585 8.85074L9.22668 13.9208C9.07382 14.2045 9.07788 14.547 9.23742 14.8269L16.1718 26.997C16.5269 27.6201 16.0769 28.3945 15.3597 28.3945H9.51688C9.18495 28.3945 8.87791 28.2184 8.71022 27.932L1.04798 14.8431C0.879124 14.5546 0.877132 14.198 1.04275 13.9077L4.44488 7.9442C4.61121 7.65265 4.9211 7.47266 5.25677 7.47266Z" fill="white"/>
<path d="M20.5831 21.1723H14.7042C13.9969 21.1723 13.5458 20.417 13.8814 19.7942L16.6132 14.7241C16.766 14.4404 16.762 14.098 16.6024 13.818L9.66803 1.64795C9.31298 1.02482 9.76298 0.250488 10.4802 0.250488H16.323C16.6549 0.250488 16.9619 0.426526 17.1296 0.712985L24.7919 13.8019C24.9607 14.0904 24.9627 14.447 24.7971 14.7373L21.395 20.7008C21.2286 20.9923 20.9187 21.1723 20.5831 21.1723Z" fill="white"/>
</g>
</svg>
