<svg width="15" height="13" viewBox="0 0 15 13" fill="none" xmlns="http://www.w3.org/2000/svg">
<path d="M13.1126 2.50871C13.3984 2.36108 14.083 1.9225 14.4056 0.981138C14.4056 0.981138 13.628 1.54342 12.5697 1.60967L12.5505 1.6203C12.2731 1.31682 11.9355 1.07455 11.5592 0.908975C11.183 0.743396 10.7763 0.658153 10.3651 0.658694C8.72777 0.658694 7.40058 1.98609 7.40058 3.62346C7.40058 3.87189 7.43145 4.11316 7.48932 4.3438L7.475 4.32233C7.475 4.32233 4.29963 4.5043 1.30604 1.22936C1.30604 1.22936 -0.0174754 3.4787 2.24863 5.19888C1.75239 5.28148 0.876044 4.83493 0.876044 4.83493C0.876044 4.83493 0.925525 7.19979 3.27403 7.77884C2.89372 7.87821 2.18238 7.91092 1.95093 7.81196C1.95093 7.81196 2.29811 9.61454 4.6965 9.92901C4.08454 10.2764 2.94341 11.3347 0.363037 11.1362C0.363037 11.1362 2.21591 12.6576 5.65607 12.4429C9.09622 12.2282 11.5938 9.91224 12.6026 7.46457C13.6115 5.0169 13.3307 3.62326 13.3307 3.62326C13.3307 3.62326 14.1737 3.18079 14.7532 2.12247C14.4856 2.20262 13.4929 2.44512 13.1234 2.53488C13.1197 2.52621 13.116 2.51748 13.1126 2.50871Z" fill="white" fill-opacity="0.2"/>
</svg>
